# xmcd
#
# Track frame offsets: 
#        150
#        16245
#        33905
#        45749
#        60171
#        76002
#        93725
#        106257
#        118442
#        135048
#        149255
#
# Disc length: 2268 seconds
#
# Revision: 0
# Processed by: cddbd v1.5.2PL0 Copyright (c) Steve Scherf et al.
# Submitted via: ExactAudioCopy v0.99pb5
#
DISCID=8208da0b
DTITLE=Nashville Country - Volume 44
DYEAR=2008
DGENRE=Country
TTITLE0=Danced A Dream
TTITLE1=Feel Good
TTITLE2=Any Given Friday
TTITLE3=Happily Ever After
TTITLE4=Queen Of The Midnight Diner
TTITLE5=Time After Time
TTITLE6=There's A Road Back To Jesus
TTITLE7=The Shade
TTITLE8=My Woman, My Woman, My Wife
TTITLE9=That's The Way (You Fall In Love)
TTITLE10=High Priced Gas
EXTD=
EXTT0=
EXTT1=
EXTT2=
EXTT3=
EXTT4=
EXTT5=
EXTT6=
EXTT7=
EXTT8=
EXTT9=
EXTT10=
PLAYORDER=
